<svg xmlns="http://www.w3.org/2000/svg" width="40" height="39.996" viewBox="0 0 40 39.996">
  <path id="패스_5390" data-name="패스 5390" d="M980.3,15.824c-.052-.195-.1-.389-.162-.582h0A19.987,19.987,0,1,0,960.958,41a20.113,20.113,0,0,0,5.208-.69A19.991,19.991,0,0,0,980.3,15.824ZM948.235,6.858c.191-.173.388-.335.584-.5a29.827,29.827,0,0,0,9.507-1.685A51.4,51.4,0,0,0,964,2.2a18.749,18.749,0,0,1,2.317.521q.59.172,1.164.38c-2.612,3.68-7.8,5.8-12.53,6.416a19.372,19.372,0,0,1-8.649-.627A19.287,19.287,0,0,1,948.235,6.858Zm-5.971,10.648a25.541,25.541,0,0,0,6.812,2.249,28.584,28.584,0,0,0,7.724.313c2.647-.07,3.212.952,2.367,1.68a3.274,3.274,0,0,1-2.273.5c-4.344-.019-8.862.1-11.52-.368a33.529,33.529,0,0,1-3.425-.884A18.964,18.964,0,0,1,942.263,17.506Zm21.668,16.3a35.319,35.319,0,0,1-9.981,1.564,17.752,17.752,0,0,1-6.7-1.192,18.81,18.81,0,0,1-3.274-4.638,29.165,29.165,0,0,0,7.893,2.773,38.618,38.618,0,0,0,11.257.414C964.3,32.541,964.407,33.611,963.931,33.808Zm-1.395-10.1c-1.678-2.386,2.895-4.748,6.215-3.673a4.681,4.681,0,0,0,2.511.125c3.376-.8,5.983-3.937,7.24-6.632q.323.76.58,1.555c-2.129,2.776-6.124,5.346-8.039,6.838C968.79,23.677,964.305,25.394,962.536,23.709Zm16.27,4.01a20.43,20.43,0,0,1-6.273,3.817,1.652,1.652,0,0,1-2.2-.8c-.03-1.033,2.67-1.76,3.862-2.4a31.654,31.654,0,0,0,5.43-3.416A18.875,18.875,0,0,1,978.806,27.719Z" transform="translate(-940.992 -1.003)"/>
</svg>
