<svg xmlns="http://www.w3.org/2000/svg" width="74.762" height="40" viewBox="0 0 74.762 40">
  <path id="패스_5391" data-name="패스 5391" d="M1016.249,226.314c-.25-.934-.918-3.415-20.042.228l-.392.077a19.978,19.978,0,0,0-36.349,9.75c-.185.057-.321.1-.376.119-18.375,6.406-17.71,8.887-17.46,9.82.15.56.452,1.69,4.9,1.69a86.69,86.69,0,0,0,14.624-1.8l0,0a19.989,19.989,0,0,0,38.115-10.229h0C1016.956,229.731,1016.494,227.229,1016.249,226.314Zm-17.294,7.662s-12.76,4.286-19.147,6c-6.449,1.728-13.6,3.268-19.349,4.353-11.105,2.1-15.677,2.025-16.86,1.563a.121.121,0,0,1-.053-.192c.767-.923,4.517-3.42,15.859-7.393a20.025,20.025,0,0,0,.553,4.369c.027,0,12.6-2.64,19.379-4.456a191.324,191.324,0,0,0,19.193-5.961,20.084,20.084,0,0,0-1.678-3.986c11.809-2.23,16.306-1.943,17.433-1.527a.122.122,0,0,1,.05.193C1013.541,227.929,1009.61,230.208,998.954,233.976Z" transform="translate(-941.554 -217.99)"/>
</svg>
