<svg xmlns="http://www.w3.org/2000/svg" width="39.999" height="40" viewBox="0 0 39.999 40">
  <path id="패스_5395" data-name="패스 5395" d="M40.938,20.938c0-.2,0-.4-.006-.6h0a19.92,19.92,0,0,0-9.623-16.5,19.723,19.723,0,0,0-4.44-2c-.067-.021-.442-.132-.515-.152A20,20,0,1,0,16.308,40.393c.146.035.715.158.81.177a19.952,19.952,0,0,0,15.31-3.277c.265-.187,1.111-.841,1.188-.9A19.963,19.963,0,0,0,40.938,20.938ZM35.693,8.879a7.584,7.584,0,0,1-1.06-.237,15.859,15.859,0,0,0-2.973-.558c-1.823-.172-2.207,1.333-2.463,2.329-.151.589-.294,1.145-.606,1.313a1.248,1.248,0,0,1-.941-.06c-1.544-.527-1.671-1.747-1.817-3.16a4.088,4.088,0,0,0-1.052-2.877c-.519-.447-.749-.854-.683-1.208.062-.334.464-.993,2.395-1.7a18.8,18.8,0,0,1,4.32,1.934A19.127,19.127,0,0,1,35.693,8.879ZM9.58,5.642a10.736,10.736,0,0,0,4.929.607,7.288,7.288,0,0,1,1.923.037c.572.121.827.839,1.178,2.008a5.285,5.285,0,0,0,1.868,3.2.862.862,0,0,1,.422.878,1.937,1.937,0,0,1-1.228,1.476,1.641,1.641,0,0,1-1.78-.472c-1.228-1.173-2.136-1.076-2.681-.787a3.145,3.145,0,0,0-1.2,3.142c.406,2.417-.082,3.626-1.684,4.172A2.6,2.6,0,0,0,9.7,23.179a2.761,2.761,0,0,0,1.237,1.577c.229.132.477.284.739.444,1.725,1.054,4.087,2.5,6.237,1.618,1.473-.6,3.6-.882,4.654-.21a1.183,1.183,0,0,1,.568,1.011,25.605,25.605,0,0,1-2.1,8.952,6.07,6.07,0,0,0-.664,3.4,19.065,19.065,0,0,1-3-.326,6.668,6.668,0,0,0-1.2-3.947,9.486,9.486,0,0,0-.977-.894,3.044,3.044,0,0,1-1.473-2.75c0-2.6-2.952-5.365-4.09-6.212a6.167,6.167,0,0,0-1.662-.8,3.09,3.09,0,0,1-2.523-3.046c-.479-3.628-1.707-4.883-2.98-5.724A18.949,18.949,0,0,1,9.58,5.642ZM33.4,35.326c-.183-1.718-.55-2.788-2.933-5.119-.449-.44-.843-.8-1.191-1.121C27.6,27.545,27.34,27.308,28.051,25.1c.216-.671.4-1.118.537-1.445.439-1.059.361-1.244-.452-2.2-.223-.263-.5-.59-.858-1.046a2.241,2.241,0,0,1-.551-2.155,4.226,4.226,0,0,1,3-2.174,2.466,2.466,0,0,1,2.129.507,3.455,3.455,0,0,0,2.809.648c.383-.083.732-.183,1.069-.279,1.581-.452,2.544-.722,4.12,1.716.066.558.109,1.123.126,1.692h0c.006.192.006.384.006.576A19.007,19.007,0,0,1,33.4,35.326Z" transform="translate(-0.938 -0.938)"/>
</svg>
