<svg xmlns="http://www.w3.org/2000/svg" width="40" height="40" viewBox="0 0 40 40">
  <path id="패스_5392" data-name="패스 5392" d="M209,377a20,20,0,1,0,20,20A20.023,20.023,0,0,0,209,377Zm-18.437,20.916a1.218,1.218,0,0,1-.539.68c-.044-.527-.072-1.058-.072-1.6,0-.158.008-.314.012-.471A1.167,1.167,0,0,1,190.563,397.916Zm4.122-9.864a.805.805,0,0,1-.138-.427c-.009-.875,1.1-1.5,1.985-.535a.932.932,0,0,1,.251.465C196.943,388.505,195.742,389.664,194.685,388.052Zm3.986,19.519a1.328,1.328,0,0,1-1.139,1.17,1.4,1.4,0,1,1-.461-2.764C198.133,405.9,198.79,406.476,198.672,407.571Zm1.223-8.088c-1.324.084-1.831-.831-1.778-2.122a1.83,1.83,0,0,1,1.8-1.771c1.1.01,1.682.88,1.715,1.97A1.922,1.922,0,0,1,199.895,399.483Zm2.259-16.4a2.773,2.773,0,0,1,3.043-2.567c1.89,0,3.09,1.064,3.09,2.377s-1.366,1.9-3.257,1.9S202.154,384.4,202.154,383.086Zm6.1,8.185c0,.505-.4,1.189-.9,1.189s-1.284.19-1.513-.784c-.116-.492.2-1.639,1.22-1.557C207.993,390.194,208.254,390.766,208.254,391.271Zm-5.6,23.683c.078-.491.443-1.2,2.145-1.2a4.5,4.5,0,0,1,3.329,2.276A18.913,18.913,0,0,1,202.653,414.955Zm7.784-6.362c-1.713-.478-3.218-.9-3.185-2.707a2.728,2.728,0,0,1,2.3-2.587c2.14-.372,4.071.6,4.071,2.645C213.623,407.7,212.482,409.163,210.437,408.593Zm4.533-11.122a.521.521,0,0,1-.612.471c-.232-.035-.519-.264-.484-.5s0-.6.464-.642C214.573,396.784,215.078,397.009,214.971,397.471Zm.553-14.423a.521.521,0,0,1-.612.471c-.232-.035-.519-.264-.484-.5s0-.6.464-.642C215.126,382.361,215.632,382.585,215.524,383.048Zm2.551,8.229a1.128,1.128,0,0,1,1.01-1.125c1.482-.187,2.347.317,2.042,1.917a1.411,1.411,0,0,1-1.059,1.13C218.994,393.426,218.112,392.315,218.075,391.277Zm1.3,21.682a.723.723,0,0,1-.244-.312.618.618,0,0,1,.034-.506,1.43,1.43,0,0,1,1.043-.705,1.525,1.525,0,0,1,.987.179A19.237,19.237,0,0,1,219.38,412.959Zm2.111-30.321a19.218,19.218,0,0,1,2.69,2.873,2.045,2.045,0,0,1-1.745-.336A2.092,2.092,0,0,1,221.49,382.638Zm.976,18.507a1.133,1.133,0,0,1-.184-.547c-.073-1.39,1.684-2.407,3.076-.856a1.405,1.405,0,0,1,.369.793C225.864,401.976,224.053,403.614,222.466,401.144Z" transform="translate(-189 -377)"/>
</svg>
