<svg xmlns="http://www.w3.org/2000/svg" width="40" height="40" viewBox="0 0 40 40">
  <path id="패스_5394" data-name="패스 5394" d="M416.97,20.371h0a19.918,19.918,0,0,0-9.608-16.487h0l-.014-.009a19.929,19.929,0,0,0-14.684-2.424c-.226.05-1.239.315-1.423.37a19.8,19.8,0,0,0-2.709,1.026c-.131.061-.9.439-1.018.5a19.93,19.93,0,0,0-10.52,16.816.1.1,0,0,0,0,.011c-.011.265-.017.531-.017.8a19.942,19.942,0,0,0,.231,3.013c.015.1.093.551.1.612a19.9,19.9,0,0,0,3.784,8.509c.044.057.332.424.363.461a20.162,20.162,0,0,0,3.937,3.695l.343.241a19.949,19.949,0,0,0,25.333-2.362c.056-.056.4-.414.444-.459a19.98,19.98,0,0,0,4.871-8.9c.005-.022.1-.412.112-.484a19.947,19.947,0,0,0,.477-4.327C416.976,20.774,416.976,20.573,416.97,20.371ZM407.9,7.817c1,.252,1.359,1.387.6,1.888s-1.42-.458-1.606-.858A.824.824,0,0,1,407.9,7.817Zm-3.308,10.805c-1.145.384-1.467-.032-3.12-.264a2.274,2.274,0,0,0-1.736.532,1.562,1.562,0,0,1-2.323-.713c-.744-1.821-1.635-2.684-1.257-4.024s2.087-1.859,3.676-2.036c1.138-.127,2.3-1.178,3.12-.669,1.186.731,1.084,1.833.714,3.1S406.575,17.958,404.592,18.622Zm-.517,3.742a2.5,2.5,0,0,1,3.024-1.389c1.028.385,2.293,1.15,1.76,2.981-.262.9-2.548,1.67-3.532,1.242A2.812,2.812,0,0,1,404.075,22.365ZM392.356,2.492a19.085,19.085,0,0,1,14.168,2c-.31.577-1.166.709-2.453.837a10.879,10.879,0,0,0-1.7.259,6.46,6.46,0,0,0-1.044.431,3.926,3.926,0,0,1-3.474.431,1.616,1.616,0,0,1-.9-1.061c-.362-.88-.819-1.58-2.739-1.226a1.652,1.652,0,0,1-1.692-.414A1.52,1.52,0,0,1,392.356,2.492Zm.62,5.817a1.853,1.853,0,0,1,1.941,1.805c-.066,1.032-2.158,2.043-3.1.66A1.616,1.616,0,0,1,392.975,8.309Zm-4.666-4.3.031-.015a1.1,1.1,0,0,1,.788.555,1.285,1.285,0,0,1-.114,1.061c-.409.669-1.59,1.016-2.537,1.3a4.838,4.838,0,0,0-1.672.693l-.207.175c-.985.83-2.819,2.373-2.1,3.716a2.69,2.69,0,0,0,1.726,1.161,1.749,1.749,0,0,0,1.448-.246,2.065,2.065,0,0,1,2.276-.005,3.1,3.1,0,0,1,1.318,1.9.423.423,0,0,1-.215.38,6.455,6.455,0,0,1-1.995.705,4.014,4.014,0,0,0-1.574.581,2.641,2.641,0,0,0-.817,1.65c-.13.759-1.293.965-2.413,1.067a4.117,4.117,0,0,0-2.286.915,1.707,1.707,0,0,1-2.007.254A18.984,18.984,0,0,1,388.31,4.008ZM382.562,30.09a7.127,7.127,0,0,0-1.166,1.824,18.947,18.947,0,0,1-3.072-7.07c4.2.683,4.362,1.37,4.759,3.072.063.271.132.564.219.881C383.376,29.071,382.962,29.589,382.562,30.09Zm1.735,3.966c-.975-.338-1.234-1.5-.432-1.933s1.375.579,1.526.993A.824.824,0,0,1,384.3,34.056Zm.3-10.105c-.6-.871.244-3.02,1.666-2.725,1.872.622,1.924,1.5,1.02,2.771A1.546,1.546,0,0,1,384.6,23.951Zm12.376,16.073a18.939,18.939,0,0,1-10.623-3.245,3.419,3.419,0,0,1,1.764-1.994,6.315,6.315,0,0,0,1.008-.755c.057-.056.228-.255.228-.255.785-.943,1.762-2.116.316-4.15a1.285,1.285,0,0,1-.242-1.2,4.2,4.2,0,0,1,2.739-2.039,5.757,5.757,0,0,0,1.878-1.316,5.384,5.384,0,0,1,3.273-1.795c1.858-.091,3,1.608,3.825,2.847a9.077,9.077,0,0,0,.633.878.475.475,0,0,1,.138.369c-.039.509-.773,1.125-1.015,1.328l-.043.036c-1.128.953-1.357,2.4-.643,4.089.383.905,1.758.549,3.088.2.378-.1.734-.19,1.016-.239a1.767,1.767,0,0,0,1.454-1.637,2.275,2.275,0,0,1,.155-.513c.328-.617,1.027-1.368,1.549-1.107.809.4,3.1,2.724,3.035,4.832A18.99,18.99,0,0,1,396.976,40.024Zm14.094-9.943c-1.191-.648-.393-2.184,0-2.708a1.226,1.226,0,0,1,2.058.6C413.5,29.464,412.261,30.729,411.07,30.081Zm4.564-5.261-.2-.1a9.848,9.848,0,0,1-3.233-2.276,5.932,5.932,0,0,1-.781-2.547,8.776,8.776,0,0,0-.607-2.377,5.283,5.283,0,0,0-1.77-1.589c-1.041-.721-2.337-1.619-2.092-2.369a2.33,2.33,0,0,1,2.268-1.386,5.219,5.219,0,0,1,1.214.378c.8.312,1.489.581,1.993.318a2.623,2.623,0,0,0,1.245-1.081,18.99,18.99,0,0,1,2.344,8.611h0c.006.192.006.384.006.575A19.068,19.068,0,0,1,415.634,24.82Z" transform="translate(-376.976 -0.976)"/>
</svg>
