<svg xmlns="http://www.w3.org/2000/svg" width="39.999" height="40" viewBox="0 0 39.999 40">
  <path id="패스_5393" data-name="패스 5393" d="M792.815,207.91a20.05,20.05,0,1,0,.017,1.173C792.832,209,792.82,208.016,792.815,207.91Zm-9.272-9.588c.57-.85,1.695-.68,2.659-.034a1.687,1.687,0,0,1,.6,2.47c-.57.85-1.4.854-2.366.207A1.987,1.987,0,0,1,783.542,198.322Zm-6.078-4.41c.185-.6.9-.675,1.536-.477a1.093,1.093,0,0,1,.872,1.328,1.081,1.081,0,0,1-1.439.653A1.34,1.34,0,0,1,777.464,193.912Zm-1.247,5.516a.953.953,0,1,1-.2,1.285A.92.92,0,0,1,776.218,199.428Zm-14.792-3.336c-.173-.331-.527-.41-.9-.492a2.531,2.531,0,0,1-1.015-.391,19.194,19.194,0,0,1,4.657-3.345,18.8,18.8,0,0,1,8.281-2.069,2.177,2.177,0,0,1-.65,1.025c-.316.353-.589.658-.569,1.034.021.4.368.84.931,1.525a5.484,5.484,0,0,1,.751,1.041,15.056,15.056,0,0,1-1.045,5.615c-.485,1.189-2.165,1.338-3.391,1.447a9.288,9.288,0,0,0-1.017.125,2.868,2.868,0,0,1-2.76-.809,1.917,1.917,0,0,0-1.641-.409c-1.325.295-2.968.3-3.448-.4-.435-.629.176-1.344,1.018-2.214a3.729,3.729,0,0,0,.8-1A.778.778,0,0,0,761.426,196.092Zm7.265,9.68a1.982,1.982,0,0,1-1.921,2.085,2.038,2.038,0,0,1-1.921-2.147,1.788,1.788,0,0,1,2.015-1.745A1.681,1.681,0,0,1,768.691,205.772Zm-11.3-2.354a1.137,1.137,0,1,1,.97,1.349A1.176,1.176,0,0,1,757.394,203.418Zm15.439,24.465a19.063,19.063,0,0,1-18.779-22.269c.612.158.948.627,1.391,1.325a3.6,3.6,0,0,0,1.48,1.534,27.844,27.844,0,0,0,2.823.9c2.05.59,5.15,1.482,5.868,2.178,1.063,1.028,1.86,5.432,1.525,7.333-.425,2.412,1.627,4.056,3.513,4.732.763.273,1.485,1.358,2.183,2.408a13.177,13.177,0,0,0,1.35,1.808C773.739,227.861,773.289,227.883,772.833,227.883Zm4.577-2.454a1.358,1.358,0,0,1-1.782-.96,1.277,1.277,0,0,1,.79-1.785,1.5,1.5,0,0,1,2,.8A1.548,1.548,0,0,1,777.41,225.429Zm4.889-.075a7.01,7.01,0,0,0-1.578-4.077,6.742,6.742,0,0,0-2.121-1.237c-2.454-1.142-6.162-2.868-6.136-6.243a5.208,5.208,0,0,0-.977-2.687,5.673,5.673,0,0,1-.952-2.324c-.1-1.042.386-1.217,1.5-1.514a5.317,5.317,0,0,0,1.612-.629c1.567-1.045,4.079-1.635,5.891-.459,2.245,1.456,3.719,2.025,5.082,1.963,1.344-.062,2.071-1.412,2.774-2.719.851-1.581,1.656-3.074,3.412-2.933a19.066,19.066,0,0,1,1.069,5.762h0c.006.191.006.383.006.575A19.057,19.057,0,0,1,782.3,225.354Z" transform="translate(-752.833 -188.833)"/>
</svg>
