<svg id="그룹_1415" data-name="그룹 1415" xmlns="http://www.w3.org/2000/svg" width="40" height="40" viewBox="0 0 40 40">
  <path id="패스_5269" data-name="패스 5269" d="M597.923,5.856a18.012,18.012,0,0,1,2.753,1.165,17.194,17.194,0,0,1-10.469,7.389c-5.45,1.282-6.876-.436-9.371-.829-2.163-.339-3.552.211-4.2-.226a18.47,18.47,0,0,1,2.342-2.921c.906.513,5.4.907,8.4.411A11.436,11.436,0,0,0,592.9,8.873,22.938,22.938,0,0,1,597.923,5.856Z" transform="translate(-573.204 -4.473)"/>
  <ellipse id="타원_457" data-name="타원 457" cx="0.793" cy="0.514" rx="0.793" ry="0.514" transform="matrix(0.943, -0.332, 0.332, 0.943, 26.988, 27.459)"/>
  <path id="패스_5271" data-name="패스 5271" d="M604.592,16.1a20.005,20.005,0,1,0-14.141,24.492A20.02,20.02,0,0,0,604.592,16.1ZM580.348,2.884A18.89,18.89,0,0,1,590,2.835a32.628,32.628,0,0,0-4.2,2.707,10.931,10.931,0,0,1-5.243,1.934c-.138.021-.267.041-.386.061a25.2,25.2,0,0,1-7.892-.165A18.92,18.92,0,0,1,580.348,2.884ZM569.1,11.254a5.209,5.209,0,0,0,1.457.04,11.972,11.972,0,0,1,2.7.077,11.292,11.292,0,0,1,1.975.553,11.766,11.766,0,0,0,4.228.824,16.937,16.937,0,0,0,3.879-.507A18.46,18.46,0,0,0,594.439,4.6a19.152,19.152,0,0,1,4.872,3.819c-.474,1.186-2.229,1.752-4.8,2.582l-.385.124a12.1,12.1,0,0,0-3.515,2.189,16.863,16.863,0,0,1-5.415,3.176c-2.83.9-6.479.375-11.324-.462a11.208,11.208,0,0,0-3.537.232c-1.326.222-2.69.448-3.432.066A19.166,19.166,0,0,1,569.1,11.254Zm32.219,20.255c-5.771,4.177-15.8,8.08-24.364,6.879a19.169,19.169,0,0,1-5.348-3.865,15.04,15.04,0,0,0,2.245.16,38.811,38.811,0,0,0,4.917-.43c1.475-.19,3-.387,4.7-.483a30.723,30.723,0,0,1,4.268.1,13.516,13.516,0,0,0,6.147-.518,14.3,14.3,0,0,0,6.179-4.37c.385-.42.748-.816,1.108-1.144a12.7,12.7,0,0,1,1.577-1.221,11.756,11.756,0,0,0,.994-.734A19.169,19.169,0,0,1,601.321,31.509Zm-9.435-4.637c2.433-.652,3.913-.007,4.205,1.083s-1.17,2.691-3.141,3.219-3.806.073-4.1-1.017S589.914,27.4,591.886,26.872Zm6.5-3a13.607,13.607,0,0,1-2.641.342,15.019,15.019,0,0,0-8.455,2.661,18.286,18.286,0,0,1-8.439,3.376c-4.782.629-8.246.491-10.585-.416a19.06,19.06,0,0,1-1.384-3.635c-.137-.514-.247-1.028-.34-1.542a15.789,15.789,0,0,0,5.082.644,55.065,55.065,0,0,0,11.662-1.461c4.583-1.038,15.362-4.041,19.521-9.992a18.914,18.914,0,0,1,1.461,6.109A10.266,10.266,0,0,1,598.388,23.876Z" transform="translate(-565.276 -1.276)"/>
  <ellipse id="타원_458" data-name="타원 458" cx="0.793" cy="0.514" rx="0.793" ry="0.514" transform="matrix(0.943, -0.332, 0.332, 0.943, 26.988, 27.459)"/>
</svg>
