<svg xmlns="http://www.w3.org/2000/svg" width="40" height="40" viewBox="0 0 40 40">
  <path id="패스_5389" data-name="패스 5389" d="M792.826,20.228a20,20,0,1,0-27.952,18.951c.035.015.635.267.858.351a20,20,0,0,0,27.1-18.7C792.833,20.631,792.833,20.43,792.826,20.228ZM779.24,12.16c.733-1.014,1.493-2.062,3.7-1.542a6.158,6.158,0,0,0,5.01-1.385,18.892,18.892,0,0,1,1.732,2.7,21.5,21.5,0,0,1-4.147,2.01c-.921.362-1.875.736-3,1.287-.808.4-5.3,1.377-6.569.868-.971-.391-1.23-.813-.954-1.556.16-.43,1.263-.724,1.993-.919a9.356,9.356,0,0,0,1.076-.33A3.016,3.016,0,0,0,779.24,12.16Zm4.226,8.528a1.076,1.076,0,0,1-.684-1.32,1.24,1.24,0,0,1,2.413,0C785.476,20.792,784.443,21.042,783.465,20.687Zm-.453,6.028a.838.838,0,0,1-.532-1.026.965.965,0,0,1,1.878,0C784.576,26.8,783.775,26.994,783.012,26.716Zm-3.081-3.28c-2.071,2.834-4.255-.165-3.464-1.821a1.521,1.521,0,0,1,2.1-.579C779.675,21.685,780.47,22.692,779.932,23.436Zm-7.1-21.653a19.094,19.094,0,0,1,4.954.654,9.408,9.408,0,0,1-.94.35,7.271,7.271,0,0,0-1.76.769,6,6,0,0,1-5.351.578,4.35,4.35,0,0,1-2.213-1.6A18.993,18.993,0,0,1,772.833,1.783ZM761.269,5.689a3.839,3.839,0,0,0,1.253,3.306,3.931,3.931,0,0,0,4.071.789,1.445,1.445,0,0,1,1.965.328,2.279,2.279,0,0,0,.908.6,3.5,3.5,0,0,0,1.813-.182,3.084,3.084,0,0,1,.943-.175,2.86,2.86,0,0,1-.215,1.988,8.739,8.739,0,0,1-1.849.6,16.048,16.048,0,0,0-4.849,1.855,7.244,7.244,0,0,0-2.375,2.925c-.417.8-.719,1.383-1.4,1.662a3.343,3.343,0,0,1-2.476-.169.812.812,0,0,1-.429-.669c-.1-1.567-.755-2.424-1.995-2.623a3.944,3.944,0,0,0-2.346.535A18.948,18.948,0,0,1,761.269,5.689Zm25.3,28.323c-.171,0-.347.008-.535.016a6.09,6.09,0,0,1-2.909-.38c-1.494-.689-4.776-.774-6.077.527-.224.224-.427.454-.624.676-.753.85-1.348,1.523-2.633,1.407-.358-.032-.688-.08-1.006-.127a4.109,4.109,0,0,0-4.07,1.065l-.307.284c-1.4,1.3-1.541,1.424-2.983.9a19.146,19.146,0,0,1-10.789-11.909c.4-.886.683-1.1,1.315-1.049.714.053.906.443,1.273,1.322a6.548,6.548,0,0,0,.844,1.571,4.766,4.766,0,0,0,4.011,2.244c.87,0,1.522-1.076,2.278-2.321.591-.974,1.326-2.187,1.909-2.259.056-.008.23-.028.5.243,2.709,2.679,4.629,2.636,5.9,2.607a3.885,3.885,0,0,1,.78.028,13.361,13.361,0,0,1,4.188,2.193,3.987,3.987,0,0,1,.426.463c.66.8,1.28,1.294,3.246.355,1.366-.652,3.653-1.744,5.295-1.13A2.785,2.785,0,0,1,788.11,32.2,19.229,19.229,0,0,1,786.569,34.012Zm3.957-6.132a1.713,1.713,0,0,1-.979-.626c-.6-.781-.44-2.589.092-3.787.415-.933-.272-2.544-.937-4.1a9.13,9.13,0,0,1-.71-1.989c-.035-.693.193-.9.268-.961.488-.431,1.748-.308,3.089-.08a19.109,19.109,0,0,1,.527,3.923h0c.006.191.006.383.006.575A18.941,18.941,0,0,1,790.526,27.88Z" transform="translate(-752.833 -0.833)"/>
</svg>
