<svg xmlns="http://www.w3.org/2000/svg" width="67.732" height="40" viewBox="0 0 67.732 40">
  <path id="패스_5397" data-name="패스 5397" d="M244.248,42.892A20,20,0,0,0,209.241,33.5c-2.223-.269-4.335-.45-6.276-.521-7.24-.262-11.25.87-11.92,3.371-.895,3.339,5.051,7.5,13.566,11.223,0,.063,0,.126.007.188a19.983,19.983,0,0,0,36.6,9.641c1.927.215,3.758.356,5.465.418q1.026.038,1.964.037c6,0,9.348-1.144,9.955-3.408C259.521,51.013,253.18,46.7,244.248,42.892Zm.027,6.809a19.455,19.455,0,0,1,3.553,1.834,18.88,18.88,0,0,1-3.907-.176Q244.135,50.533,244.275,49.7Zm-25.814-20.63c2.309,2.451,10.491,4.378,16.268,4.378a18.618,18.618,0,0,0,2.7-.179A18.366,18.366,0,0,1,241.36,39c-6.45,1.331-13.4.09-21.21-3.8a28.408,28.408,0,0,0-7.7-2.61A18.491,18.491,0,0,1,218.461,29.071Zm1.36,35.005a18.349,18.349,0,0,1-11.814-9.841A31.125,31.125,0,0,0,224.851,60.8c1.8.179,3.384.245,4.778.245a53.282,53.282,0,0,0,5.417-.305c.358-.035.69-.066,1.006-.092A18.326,18.326,0,0,1,219.821,64.076ZM257,54.026c-.324,1.207-3.19,2.4-10.265,2.147a112.457,112.457,0,0,1-23.729-4.006,112.411,112.411,0,0,1-22.553-8.4c-6.256-3.314-8.139-5.784-7.816-6.991s3.186-2.406,10.264-2.147c1.615.059,3.354.2,5.176.4a19.751,19.751,0,0,0-1.594,2.791c-5.67-.709-6.413.061-6.627.862h0c-.237.883.095,2.053,7.07,4.775a170.072,170.072,0,0,0,16.97,5.394,170.306,170.306,0,0,0,17.393,3.814,38.849,38.849,0,0,0,5.556.542c2.369,0,2.8-.564,2.954-1.144.215-.8-.047-1.841-5.314-4.062a19.952,19.952,0,0,0,0-3.224c1.685.741,3.262,1.5,4.7,2.256C255.444,50.349,257.327,52.819,257,54.026ZM205.822,39.4q-.292.79-.519,1.613a18.975,18.975,0,0,1-3.465-1.8A19.13,19.13,0,0,1,205.822,39.4Z" transform="translate(-190.956 -26.355)"/>
</svg>
